<svg width="40.000000" height="40.000000" viewBox="0 0 40 40" fill="none" xmlns="http://www.w3.org/2000/svg" xmlns:xlink="http://www.w3.org/1999/xlink">
	<desc>
			Created with Pixso.
	</desc>
	<defs>
		<clipPath id="clip69_4795">
			<rect width="40.000000" height="40.000000" fill="white" fill-opacity="0"/>
		</clipPath>
	</defs>
	<g clip-path="url(#clip69_4795)">
		<path d="M20 0C8.97 0 0 8.97 0 20C0 31.02 8.97 40 20 40C31.02 40 40 31.02 40 20C40 8.97 31.02 0 20 0Z" fill="#458AF4" fill-opacity="1.000000" fill-rule="nonzero"/>
		<path d="M30.01 21.34C29.91 19.69 29.48 18.24 28.72 17C27.96 15.76 26.87 14.73 25.45 13.9L26.46 11.91C26.57 11.69 26.62 11.42 26.62 11.12C26.62 10.76 26.53 10.46 26.36 10.21C26.2 9.93 25.99 9.72 25.72 9.58C25.46 9.44 25.18 9.37 24.87 9.37L15.1 9.37C14.8 9.37 14.52 9.44 14.25 9.58C14.17 9.62 14.1 9.66 14.04 9.72C13.87 9.85 13.73 10.01 13.62 10.21C13.59 10.25 13.56 10.29 13.54 10.34C13.41 10.56 13.35 10.82 13.35 11.12C13.35 11.42 13.41 11.69 13.52 11.91L14.5 13.88C13.24 14.6 12.25 15.5 11.52 16.58C11.46 16.68 11.4 16.78 11.34 16.88C10.6 18.09 10.15 19.58 9.99 21.34C9.98 21.5 9.97 21.74 9.97 22.06C9.97 23.66 10.31 25.07 11.01 26.27C11.29 26.77 11.63 27.23 12.03 27.66C12.06 27.69 12.09 27.72 12.13 27.76C13.01 28.67 14.11 29.37 15.43 29.86C16.8 30.37 18.32 30.63 20 30.63C21.68 30.63 23.2 30.38 24.55 29.9C25.9 29.41 27.01 28.71 27.87 27.8C28.64 27 29.2 26.05 29.56 24.96C29.92 23.86 30.07 22.65 30.01 21.34ZM23.5 21.3C23.36 21.44 23.19 21.51 22.98 21.51L20.74 21.54L20.74 22.81L22.98 22.81C23.19 22.81 23.36 22.88 23.5 23.02C23.65 23.16 23.72 23.34 23.72 23.55C23.72 23.75 23.65 23.93 23.5 24.08C23.36 24.22 23.19 24.3 22.98 24.3L20.74 24.3L20.74 26.53C20.74 26.64 20.72 26.74 20.68 26.83C20.64 26.91 20.59 26.99 20.53 27.06C20.38 27.2 20.21 27.27 20 27.27C19.9 27.27 19.8 27.25 19.71 27.21C19.62 27.18 19.54 27.13 19.46 27.06C19.31 26.91 19.23 26.73 19.23 26.53L19.23 24.3L17 24.3C16.79 24.3 16.62 24.22 16.47 24.08C16.33 23.93 16.26 23.75 16.26 23.55C16.26 23.34 16.33 23.16 16.47 23.02C16.62 22.88 16.79 22.81 17 22.81L19.23 22.81L19.23 21.54L17.02 21.54C16.81 21.54 16.64 21.46 16.5 21.31C16.35 21.15 16.28 20.97 16.28 20.77C16.28 20.56 16.35 20.38 16.5 20.24C16.64 20.09 16.81 20.02 17.02 20.02L18.85 20.02L16.98 18.15C16.83 18.01 16.76 17.83 16.76 17.62C16.76 17.41 16.83 17.24 16.98 17.1C17.12 16.95 17.29 16.88 17.5 16.88C17.71 16.88 17.89 16.95 18.03 17.1L19.95 19.02L21.92 17.04C22.07 16.9 22.24 16.83 22.45 16.83C22.66 16.83 22.83 16.9 22.98 17.04C23.03 17.1 23.07 17.15 23.11 17.22C23.16 17.32 23.19 17.44 23.19 17.58C23.19 17.78 23.12 17.96 22.98 18.1L21.08 20.02L22.98 20.02C23.19 20.02 23.36 20.09 23.5 20.24C23.65 20.38 23.72 20.56 23.72 20.77C23.72 20.97 23.65 21.15 23.5 21.3Z" fill="#FFFFFF" fill-opacity="1.000000" fill-rule="evenodd"/>
	</g>
</svg>
