<svg width="24.000000" height="24.000000" viewBox="0 0 24 24" fill="none" xmlns="http://www.w3.org/2000/svg" xmlns:xlink="http://www.w3.org/1999/xlink">
	<desc>
			Created with Pixso.
	</desc>
	<defs/>
	<path d="M0 12C0 18.64 5.35 24 12 24C18.64 24 24 18.64 24 12C24 5.35 18.64 0 12 0C5.35 0 0 5.35 0 12Z" fill="#5A9EF7" fill-opacity="1.000000" fill-rule="nonzero"/>
	<path d="M14.52 13.5C14.52 13.5 14.95 12.9 15.38 11.7C15.85 10.5 15.89 9.81 15.89 9.81L12.47 9.77L12.47 8.61L16.62 8.57L16.62 7.71L12.42 7.71L12.42 5.82L10.37 5.82L10.37 7.71L6.42 7.71L6.42 8.57L10.32 8.52L10.32 9.81L7.24 9.81L7.24 10.5L13.67 10.5C13.62 10.92 13.49 11.31 13.37 11.7C13.11 12.34 12.85 12.94 12.85 12.94C12.85 12.94 9.85 11.87 8.22 11.87C6.64 11.87 4.71 12.51 4.49 14.35C4.32 16.2 5.39 17.22 6.94 17.57C8.44 17.91 9.85 17.57 11.1 16.97C12.34 16.37 13.54 15 13.54 15L19.92 18.12C19.92 18.12 20.31 17.52 20.61 16.97C20.82 16.58 20.99 16.15 21.17 15.77L14.52 13.5ZM7.92 16.54C5.65 16.54 5.22 15.42 5.22 14.65C5.22 13.88 5.69 12.98 7.62 12.85C9.51 12.72 12.12 14.22 12.12 14.22C12.12 14.22 10.2 16.54 7.92 16.54Z" fill="#FFFFFF" fill-opacity="1.000000" fill-rule="nonzero"/>
</svg>
