<svg width="24.000000" height="24.000000" viewBox="0 0 24 24" fill="none" xmlns="http://www.w3.org/2000/svg" xmlns:xlink="http://www.w3.org/1999/xlink">
	<desc>
			Created with Pixso.
	</desc>
	<defs/>
	<path d="M7.91 9.02C8.31 9.02 8.59 8.74 8.59 8.31C8.59 7.88 8.31 7.62 7.91 7.62C7.51 7.62 7.08 7.91 7.08 8.31C7.08 8.74 7.48 9.02 7.91 9.02ZM11.77 7.62C11.37 7.62 10.94 7.91 10.94 8.31C10.94 8.74 11.37 9.02 11.77 9.02C12.2 9.02 12.45 8.74 12.45 8.31C12.45 7.91 12.2 7.62 11.77 7.62ZM16.6 12.82C17.02 12.82 17.28 12.54 17.28 12.25C17.28 11.97 17 11.68 16.6 11.68C16.31 11.68 16.05 11.97 16.05 12.25C16.05 12.54 16.34 12.82 16.6 12.82ZM13.57 12.82C14 12.82 14.25 12.54 14.25 12.25C14.25 11.97 13.97 11.68 13.57 11.68C13.28 11.68 13.02 11.97 13.02 12.25C13.02 12.54 13.28 12.82 13.57 12.82ZM0 12C0 18.62 5.37 24 12 24C18.62 24 24 18.62 24 12C24 5.37 18.6 0 11.97 0C5.37 0 0 5.37 0 12ZM14.74 9.14C12.11 9.14 10.05 11.14 10.05 13.57C10.05 13.97 10.11 14.37 10.22 14.74C10.05 14.77 9.88 14.77 9.71 14.77C9.02 14.77 8.45 14.62 7.77 14.48L5.82 15.45L6.37 13.77C5 12.8 4.17 11.54 4.17 10C4.17 7.34 6.65 5.22 9.68 5.22C12.4 5.22 14.77 6.91 15.25 9.17C15.11 9.17 14.91 9.14 14.74 9.14ZM19.79 13.51C19.79 14.77 18.97 15.88 17.85 16.74L18.28 18.14L16.77 17.31C16.22 17.45 15.65 17.6 15.11 17.6C12.48 17.6 10.4 15.77 10.4 13.54C10.4 11.31 12.48 9.48 15.11 9.48C17.57 9.45 19.79 11.28 19.79 13.51Z" fill="#04D102" fill-opacity="1.000000" fill-rule="nonzero"/>
</svg>
