<svg width="40.000000" height="40.000000" viewBox="0 0 40 40" fill="none" xmlns="http://www.w3.org/2000/svg" xmlns:xlink="http://www.w3.org/1999/xlink">
	<desc>
			Created with Pixso.
	</desc>
	<defs>
		<clipPath id="clip69_4841">
			<rect width="40.000000" height="40.000000" fill="white" fill-opacity="0"/>
		</clipPath>
	</defs>
	<g clip-path="url(#clip69_4841)">
		<path d="M20 0C8.97 0 0 8.97 0 20C0 31.02 8.97 40 20 40C31.02 40 40 31.02 40 20C40 8.97 31.02 0 20 0Z" fill="#FFFFFF" fill-opacity="1.000000" fill-rule="nonzero"/>
		<path d="M20 0C31.04 0 40 8.95 40 20C40 31.04 31.04 40 20 40C8.95 40 0 31.04 0 20C0 8.95 8.95 0 20 0ZM28.96 24.13L28.38 24.13L28.85 27.17L28.61 27.69C28.58 27.78 28.52 27.85 28.45 27.9C28.38 27.94 28.31 27.97 28.24 27.97L28.08 27.97L27.98 28.57L28.16 28.57C28.33 28.57 28.49 28.52 28.64 28.43C28.78 28.34 28.92 28.18 29.03 27.94L30.85 24.13L30.27 24.13L29.25 26.34L29.24 26.34L28.96 24.13ZM11.38 22.85L10.8 22.85L10.31 25.79C10.23 26.25 10.31 26.62 10.52 26.9C10.73 27.18 11.03 27.32 11.41 27.33C11.8 27.33 12.17 27.17 12.46 26.9C12.76 26.62 12.95 26.25 13.04 25.79L13.53 22.85L12.95 22.85L12.47 25.71C12.41 26.02 12.3 26.25 12.13 26.4C12.05 26.48 11.96 26.54 11.85 26.59C11.75 26.63 11.64 26.65 11.53 26.65C11.43 26.66 11.33 26.64 11.24 26.59C11.15 26.55 11.07 26.49 11.01 26.4C10.89 26.24 10.86 26.02 10.9 25.71L11.38 22.85ZM27.07 24.09C26.88 24.08 26.69 24.12 26.52 24.2C26.34 24.28 26.19 24.4 26.07 24.56L26.44 24.93C26.5 24.85 26.57 24.78 26.67 24.74C26.77 24.7 26.89 24.69 27 24.69C27.38 24.68 27.54 24.82 27.49 25.1L27.43 25.43L26.68 25.43C26.54 25.43 26.42 25.45 26.29 25.5C26.17 25.54 26.06 25.61 25.96 25.7C25.78 25.88 25.66 26.1 25.63 26.36C25.58 26.64 25.63 26.87 25.77 27.05C25.9 27.23 26.12 27.32 26.43 27.33C26.58 27.33 26.73 27.31 26.88 27.25C27 27.2 27.09 27.12 27.16 27.01L27.17 27.01L27.12 27.29L27.67 27.29L28.04 25.13C28.1 24.74 28.04 24.47 27.86 24.32C27.68 24.16 27.42 24.09 27.07 24.09ZM18.77 24.09C18.6 24.09 18.43 24.12 18.28 24.19C18.12 24.27 17.98 24.37 17.87 24.5C17.75 24.62 17.65 24.77 17.57 24.94C17.48 25.19 17.41 25.44 17.37 25.71C17.32 25.96 17.3 26.21 17.31 26.47C17.33 26.63 17.38 26.78 17.47 26.92C17.53 27.03 17.63 27.12 17.74 27.19C17.86 27.28 18.02 27.32 18.23 27.33C18.42 27.33 18.6 27.28 18.77 27.19C18.85 27.16 18.91 27.11 18.97 27.06C19.03 27.02 19.08 26.97 19.12 26.92C19.25 26.8 19.36 26.64 19.43 26.47C19.5 26.29 19.57 26.04 19.63 25.71C19.68 25.37 19.7 25.12 19.69 24.94C19.68 24.78 19.62 24.63 19.53 24.5C19.47 24.38 19.38 24.29 19.27 24.22C19.12 24.13 18.95 24.08 18.77 24.09ZM15.15 24.09C14.86 24.09 14.58 24.23 14.38 24.47L14.37 24.47L14.42 24.13L13.87 24.13L13.34 27.29L13.89 27.29L14.21 25.41C14.23 25.21 14.31 25.04 14.45 24.9C14.56 24.79 14.7 24.73 14.87 24.73C14.94 24.72 15 24.74 15.07 24.77C15.13 24.8 15.18 24.85 15.22 24.9C15.31 25.02 15.33 25.19 15.29 25.41L14.98 27.29L15.53 27.29L15.88 25.19C15.93 24.83 15.88 24.56 15.73 24.37C15.66 24.28 15.57 24.21 15.47 24.16C15.37 24.11 15.26 24.09 15.15 24.09ZM17.18 24.13L16.63 24.13L16.09 27.29L16.65 27.29L17.18 24.13ZM21.62 24.09C21.47 24.09 21.33 24.13 21.19 24.19C21.06 24.26 20.94 24.35 20.85 24.47L20.84 24.47L20.9 24.13L20.34 24.13L19.81 27.29L20.36 27.29L20.68 25.41C20.7 25.21 20.78 25.04 20.92 24.9C21.03 24.78 21.17 24.73 21.34 24.73C21.41 24.72 21.47 24.74 21.54 24.77C21.6 24.8 21.65 24.85 21.69 24.9C21.78 25.02 21.8 25.19 21.76 25.41L21.44 27.29L22 27.29L22.35 25.19C22.4 24.83 22.35 24.55 22.2 24.37C22.13 24.28 22.04 24.21 21.94 24.16C21.84 24.11 21.73 24.09 21.62 24.09ZM24.74 22.85L23.35 22.85L22.6 27.29L23.18 27.29L23.47 25.56L24.35 25.56C24.54 25.56 24.72 25.52 24.89 25.44C25.06 25.37 25.21 25.26 25.33 25.12C25.58 24.85 25.73 24.55 25.78 24.22C25.82 24.01 25.82 23.79 25.77 23.59C25.74 23.42 25.66 23.28 25.55 23.16C25.44 23.04 25.31 22.95 25.16 22.9C25.02 22.87 24.88 22.85 24.74 22.85ZM27.34 25.95L27.31 26.18C27.27 26.41 27.2 26.57 27.1 26.63C26.99 26.7 26.83 26.73 26.6 26.73C26.42 26.73 26.29 26.69 26.23 26.6C26.15 26.53 26.13 26.43 26.15 26.33C26.19 26.08 26.37 25.96 26.69 25.95L27.34 25.95ZM18.66 24.73C18.75 24.72 18.84 24.75 18.92 24.79C18.98 24.82 19.04 24.88 19.07 24.96C19.11 25.04 19.13 25.13 19.13 25.22C19.12 25.39 19.11 25.55 19.08 25.71C19.05 25.87 19.02 26.03 18.97 26.19C18.93 26.29 18.88 26.38 18.81 26.46C18.76 26.53 18.69 26.58 18.61 26.62C18.52 26.67 18.43 26.69 18.33 26.69C18.25 26.69 18.17 26.67 18.1 26.63C18.03 26.59 17.97 26.53 17.93 26.46C17.89 26.37 17.87 26.28 17.87 26.19C17.87 26.02 17.89 25.86 17.92 25.71C17.95 25.54 17.98 25.38 18.04 25.22C18.07 25.12 18.12 25.04 18.18 24.96C18.24 24.89 18.31 24.83 18.4 24.79C18.48 24.75 18.57 24.73 18.66 24.73ZM24.66 23.49C24.81 23.48 24.94 23.52 25.06 23.61C25.13 23.67 25.18 23.74 25.2 23.83C25.23 23.95 25.23 24.08 25.2 24.2C25.17 24.39 25.09 24.55 24.97 24.69C24.9 24.77 24.82 24.82 24.73 24.86C24.64 24.9 24.54 24.92 24.44 24.92L23.58 24.92L23.82 23.49L24.66 23.49ZM17.39 22.85L16.84 22.85L16.73 23.49L17.28 23.49L17.39 22.85ZM15.42 13.71L15.3 13.72C15 13.77 14.85 14.02 14.85 14.47L14.85 20.95C14.85 21.46 15.04 21.71 15.42 21.71L15.54 21.7C15.84 21.65 16 21.4 16 20.95L16 14.47C16 13.96 15.8 13.71 15.42 13.71ZM33.53 12.59C33.16 12.59 32.86 12.88 32.86 13.25L32.86 14.16L29.14 14.16L29.02 14.17C28.93 14.19 28.84 14.23 28.76 14.28C28.68 14.33 28.62 14.4 28.57 14.48L28.57 13.1C28.57 12.97 28.54 12.86 28.47 12.76L27.42 14.14L27.42 20.03C27.42 20.39 27.61 20.57 28 20.57L28.13 20.56C28.42 20.52 28.57 20.34 28.57 20.03L28.57 15.15C28.63 15.25 28.71 15.33 28.81 15.38C28.91 15.44 29.02 15.47 29.14 15.47L32.86 15.47L32.86 20.31L32.85 20.35C32.84 20.38 32.81 20.39 32.78 20.4L31.9 20.4L31.78 20.41C31.71 20.42 31.64 20.45 31.57 20.49C31.5 20.53 31.44 20.58 31.39 20.63C31.34 20.69 31.3 20.76 31.28 20.83C31.25 20.9 31.24 20.98 31.24 21.06C31.24 21.41 31.54 21.71 31.9 21.71L33.52 21.71L33.64 21.68C33.72 21.66 33.8 21.62 33.86 21.57C33.93 21.53 33.99 21.47 34.04 21.4C34.09 21.34 34.13 21.27 34.16 21.19C34.18 21.11 34.2 21.03 34.2 20.95L34.2 15.47L34.76 15.47L34.88 15.46C34.95 15.44 35.02 15.42 35.09 15.38C35.16 15.34 35.22 15.29 35.27 15.24C35.32 15.18 35.35 15.11 35.38 15.04C35.41 14.97 35.42 14.89 35.42 14.82C35.42 14.77 35.42 14.73 35.41 14.69C35.4 14.64 35.39 14.6 35.37 14.56C35.35 14.52 35.33 14.49 35.31 14.45C35.28 14.41 35.25 14.38 35.22 14.35C35.19 14.32 35.16 14.29 35.12 14.27C35.09 14.25 35.05 14.23 35.01 14.21C34.97 14.19 34.93 14.18 34.88 14.17C34.84 14.16 34.8 14.16 34.75 14.16L34.2 14.16L34.2 13.25L34.19 13.13C34.17 13.05 34.14 12.98 34.1 12.92C34.06 12.85 34.01 12.79 33.95 12.74C33.89 12.69 33.83 12.66 33.75 12.63C33.68 12.6 33.61 12.59 33.53 12.59ZM28 12.57L27.86 12.58C27.77 12.59 27.69 12.62 27.63 12.65C27.56 12.62 27.49 12.59 27.42 12.58C27.35 12.57 27.28 12.56 27.2 12.57C27.13 12.58 27.06 12.6 26.99 12.64C26.93 12.67 26.87 12.71 26.81 12.76L24.21 15.38L24.21 13.84L24.21 13.76C24.2 13.7 24.19 13.65 24.17 13.6C24.15 13.53 24.12 13.46 24.08 13.4C24.04 13.34 23.99 13.28 23.93 13.24C23.87 13.19 23.8 13.16 23.73 13.13C23.66 13.11 23.59 13.09 23.52 13.1L17.29 13.1L16.98 12.8L16.89 12.72C16.82 12.68 16.75 12.65 16.67 12.63C16.6 12.61 16.52 12.61 16.45 12.62C16.37 12.62 16.29 12.64 16.22 12.68C16.15 12.71 16.09 12.76 16.04 12.81C16.01 12.84 15.98 12.87 15.96 12.91C15.93 12.95 15.91 12.98 15.9 13.02C15.88 13.06 15.87 13.1 15.86 13.15C15.85 13.19 15.85 13.23 15.85 13.27C15.85 13.32 15.85 13.36 15.86 13.4C15.87 13.44 15.88 13.49 15.9 13.53C15.92 13.56 15.94 13.6 15.96 13.64C15.99 13.67 16.02 13.71 16.05 13.74L16.55 14.22L16.63 14.28C16.75 14.36 16.89 14.4 17.03 14.4L17.08 14.4L22.88 14.4L22.88 16.73L22.35 17.26L21.2 16.13L23.69 19.36L23.63 19.42L20.77 15.72L20.51 15.46L20.45 15.41L20.38 15.36C20.32 15.31 20.25 15.26 20.17 15.23C20.09 15.2 20 15.18 19.92 15.18C19.83 15.19 19.75 15.2 19.67 15.24C19.59 15.27 19.52 15.32 19.45 15.37L17.13 17.65L17.06 17.74C17.01 17.8 16.98 17.87 16.96 17.95C16.94 18.02 16.93 18.1 16.94 18.17C16.95 18.25 16.97 18.32 17 18.39C17.03 18.46 17.08 18.52 17.13 18.58C17.39 18.83 17.81 18.83 18.08 18.58L19.94 16.75L21.82 18.6L21.9 18.66C21.95 18.7 22.01 18.73 22.07 18.75C22.13 18.78 22.2 18.81 22.27 18.82C22.34 18.83 22.41 18.83 22.48 18.82C22.55 18.81 22.62 18.78 22.68 18.75C22.75 18.72 22.8 18.68 22.86 18.63L22.88 18.61L22.88 20.17L22.88 20.21C22.86 20.25 22.84 20.27 22.8 20.28L22.11 20.29L21.99 20.3C21.91 20.31 21.84 20.34 21.77 20.38C21.71 20.42 21.65 20.47 21.6 20.53C21.55 20.59 21.51 20.65 21.49 20.73C21.46 20.8 21.45 20.87 21.45 20.95C21.46 21.31 21.76 21.6 22.13 21.6L23.45 21.58L23.47 21.58L23.5 21.58C23.52 21.57 23.53 21.58 23.54 21.58C23.91 21.58 24.21 21.29 24.21 20.92L24.21 18.38L23.73 19.01L23.68 18.95L24.21 18.24L24.21 17.26L27.37 14.08L28.42 12.69C28.32 12.61 28.18 12.57 28 12.57ZM13.58 16.14L5.25 16.14L5.13 16.15C5.03 16.16 4.94 16.2 4.86 16.25C4.78 16.31 4.71 16.38 4.66 16.46C4.6 16.57 4.57 16.68 4.57 16.79C4.57 16.91 4.6 17.02 4.66 17.13C4.72 17.23 4.8 17.31 4.91 17.37C5.02 17.42 5.13 17.45 5.25 17.45L6.54 17.45L5.31 20.58L5.28 20.69C5.26 20.75 5.26 20.82 5.27 20.88C5.27 20.95 5.29 21.01 5.32 21.07C5.34 21.13 5.38 21.18 5.42 21.23C5.46 21.28 5.51 21.32 5.56 21.36C5.69 21.5 5.87 21.59 6.07 21.59L13.14 21.59L13.22 21.58L13.29 21.57C13.34 21.57 13.4 21.57 13.45 21.56C13.5 21.55 13.55 21.53 13.6 21.51C13.65 21.49 13.7 21.46 13.74 21.43C13.78 21.39 13.82 21.35 13.85 21.31C13.88 21.27 13.91 21.22 13.93 21.17C13.95 21.12 13.97 21.07 13.97 21.02C13.98 20.96 13.98 20.91 13.98 20.86C13.97 20.8 13.96 20.75 13.94 20.7L13.22 18.69L13.17 18.58C13.13 18.51 13.08 18.45 13.02 18.4C12.97 18.35 12.9 18.32 12.83 18.29C12.75 18.26 12.68 18.25 12.6 18.25C12.52 18.25 12.45 18.26 12.37 18.28C12.33 18.3 12.29 18.32 12.26 18.34C12.22 18.36 12.18 18.38 12.15 18.41C12.12 18.44 12.09 18.47 12.06 18.51C12.04 18.54 12.01 18.58 11.99 18.62C11.98 18.66 11.96 18.7 11.95 18.74C11.94 18.78 11.93 18.82 11.93 18.87C11.93 18.91 11.93 18.95 11.93 18.99C11.94 19.04 11.95 19.08 11.96 19.12L12.34 20.17L12.33 20.22C12.32 20.25 12.3 20.27 12.26 20.28L7 20.28L6.97 20.27C6.95 20.26 6.93 20.25 6.92 20.23C6.9 20.2 6.9 20.17 6.91 20.14L7.9 17.61L7.93 17.53L7.94 17.45L13.58 17.45L13.7 17.44C13.79 17.43 13.88 17.39 13.97 17.34C14.05 17.28 14.11 17.21 14.17 17.13C14.23 17.02 14.26 16.91 14.26 16.79C14.26 16.68 14.23 16.57 14.17 16.46C14.1 16.36 14.02 16.28 13.91 16.22C13.81 16.16 13.7 16.14 13.58 16.14ZM29.8 16.24C29.47 15.91 29.14 15.91 28.81 16.24L28.72 16.35C28.49 16.65 28.52 16.94 28.81 17.23L30.76 19.18C31.09 19.51 31.42 19.51 31.75 19.18C32.08 18.85 32.08 18.52 31.75 18.19L29.8 16.24ZM11.93 12.57L5.2 12.57C4.78 12.57 4.57 12.76 4.57 13.14L4.57 13.26C4.62 13.56 4.82 13.71 5.2 13.71L11.93 13.71C12.36 13.71 12.57 13.52 12.57 13.14L12.56 13.02C12.52 12.72 12.31 12.57 11.93 12.57Z" fill="#E02020" fill-opacity="1.000000" fill-rule="nonzero"/>
	</g>
</svg>
