<svg width="40.000000" height="40.000000" viewBox="0 0 40 40" fill="none" xmlns="http://www.w3.org/2000/svg" xmlns:xlink="http://www.w3.org/1999/xlink">
	<desc>
			Created with Pixso.
	</desc>
	<defs>
		<clipPath id="clip70_4404">
			<rect width="40.000000" height="40.000000" fill="white" fill-opacity="0"/>
		</clipPath>
	</defs>
	<g clip-path="url(#clip70_4404)">
		<path d="M0 20C0 20.32 0 20.65 0.02 20.98C0.04 21.3 0.06 21.63 0.09 21.96C0.12 22.28 0.16 22.61 0.21 22.93C0.26 23.25 0.32 23.58 0.38 23.9C0.44 24.22 0.51 24.54 0.59 24.85C0.67 25.17 0.76 25.49 0.86 25.8C0.95 26.11 1.05 26.42 1.16 26.73C1.27 27.04 1.39 27.35 1.52 27.65C1.64 27.95 1.78 28.25 1.92 28.55C2.06 28.84 2.2 29.13 2.36 29.42C2.51 29.71 2.67 30 2.84 30.28C3.01 30.56 3.18 30.83 3.37 31.11C3.55 31.38 3.74 31.65 3.93 31.91C4.13 32.17 4.33 32.43 4.53 32.68C4.74 32.94 4.96 33.18 5.18 33.43C5.4 33.67 5.62 33.91 5.85 34.14C6.08 34.37 6.32 34.59 6.56 34.81C6.81 35.03 7.05 35.25 7.31 35.46C7.56 35.66 7.82 35.86 8.08 36.06C8.34 36.25 8.61 36.44 8.88 36.62C9.16 36.81 9.43 36.98 9.71 37.15C9.99 37.32 10.28 37.48 10.57 37.63C10.86 37.79 11.15 37.93 11.44 38.07C11.74 38.21 12.04 38.35 12.34 38.47C12.64 38.6 12.95 38.72 13.26 38.83C13.57 38.94 13.88 39.04 14.19 39.13C14.5 39.23 14.82 39.32 15.14 39.4C15.45 39.48 15.77 39.55 16.09 39.61C16.41 39.67 16.74 39.73 17.06 39.78C17.38 39.83 17.71 39.87 18.03 39.9C18.36 39.93 18.69 39.96 19.01 39.97C19.34 39.99 19.67 40 20 40C20.32 40 20.65 39.99 20.98 39.97C21.3 39.96 21.63 39.93 21.96 39.9C22.28 39.87 22.61 39.83 22.93 39.78C23.25 39.73 23.58 39.67 23.9 39.61C24.22 39.55 24.54 39.48 24.85 39.4C25.17 39.32 25.49 39.23 25.8 39.13C26.11 39.04 26.42 38.94 26.73 38.83C27.04 38.72 27.35 38.6 27.65 38.47C27.95 38.35 28.25 38.21 28.55 38.07C28.84 37.93 29.13 37.79 29.42 37.63C29.71 37.48 30 37.32 30.28 37.15C30.56 36.98 30.83 36.81 31.11 36.62C31.38 36.44 31.65 36.25 31.91 36.06C32.17 35.86 32.43 35.66 32.68 35.46C32.94 35.25 33.18 35.03 33.43 34.81C33.67 34.59 33.91 34.37 34.14 34.14C34.37 33.91 34.59 33.67 34.81 33.43C35.03 33.18 35.25 32.94 35.46 32.68C35.66 32.43 35.86 32.17 36.06 31.91C36.25 31.65 36.44 31.38 36.62 31.11C36.81 30.83 36.98 30.56 37.15 30.28C37.32 30 37.48 29.71 37.63 29.42C37.79 29.13 37.93 28.84 38.07 28.55C38.21 28.25 38.35 27.95 38.47 27.65C38.6 27.35 38.72 27.04 38.83 26.73C38.94 26.42 39.04 26.11 39.13 25.8C39.23 25.49 39.32 25.17 39.4 24.85C39.48 24.54 39.55 24.22 39.61 23.9C39.67 23.58 39.73 23.25 39.78 22.93C39.83 22.61 39.87 22.28 39.9 21.96C39.93 21.63 39.95 21.3 39.97 20.98C39.99 20.65 40 20.32 40 20C40 19.67 39.99 19.34 39.97 19.01C39.95 18.69 39.93 18.36 39.9 18.03C39.87 17.71 39.83 17.38 39.78 17.06C39.73 16.74 39.67 16.41 39.61 16.09C39.55 15.77 39.48 15.45 39.4 15.14C39.32 14.82 39.23 14.5 39.13 14.19C39.04 13.88 38.94 13.57 38.83 13.26C38.72 12.95 38.6 12.64 38.47 12.34C38.35 12.04 38.21 11.74 38.07 11.44C37.93 11.15 37.79 10.86 37.63 10.57C37.48 10.28 37.32 9.99 37.15 9.71C36.98 9.43 36.81 9.16 36.62 8.88C36.44 8.61 36.25 8.34 36.06 8.08C35.86 7.82 35.66 7.56 35.46 7.31C35.25 7.05 35.03 6.81 34.81 6.56C34.59 6.32 34.37 6.08 34.14 5.85C33.91 5.62 33.67 5.4 33.43 5.18C33.18 4.96 32.94 4.74 32.68 4.53C32.43 4.33 32.17 4.13 31.91 3.93C31.65 3.74 31.38 3.55 31.11 3.37C30.83 3.18 30.56 3.01 30.28 2.84C30 2.67 29.71 2.51 29.42 2.36C29.13 2.2 28.84 2.06 28.55 1.92C28.25 1.78 27.95 1.64 27.65 1.52C27.35 1.39 27.04 1.27 26.73 1.16C26.42 1.05 26.11 0.95 25.8 0.86C25.49 0.76 25.17 0.67 24.85 0.59C24.54 0.51 24.22 0.44 23.9 0.38C23.58 0.32 23.25 0.26 22.93 0.21C22.61 0.16 22.28 0.12 21.96 0.09C21.63 0.06 21.3 0.04 20.98 0.02C20.65 0 20.32 0 20 0C19.67 0 19.34 0 19.01 0.02C18.69 0.04 18.36 0.06 18.03 0.09C17.71 0.12 17.38 0.16 17.06 0.21C16.74 0.26 16.41 0.32 16.09 0.38C15.77 0.44 15.45 0.51 15.14 0.59C14.82 0.67 14.5 0.76 14.19 0.86C13.88 0.95 13.57 1.05 13.26 1.16C12.95 1.27 12.64 1.39 12.34 1.52C12.04 1.64 11.74 1.78 11.44 1.92C11.15 2.06 10.86 2.2 10.57 2.36C10.28 2.51 9.99 2.67 9.71 2.84C9.43 3.01 9.16 3.18 8.88 3.37C8.61 3.55 8.34 3.74 8.08 3.93C7.82 4.13 7.56 4.33 7.31 4.53C7.05 4.74 6.81 4.96 6.56 5.18C6.32 5.4 6.08 5.62 5.85 5.85C5.62 6.08 5.4 6.32 5.18 6.56C4.96 6.81 4.74 7.05 4.53 7.31C4.33 7.56 4.13 7.82 3.93 8.08C3.74 8.34 3.55 8.61 3.37 8.88C3.18 9.16 3.01 9.43 2.84 9.71C2.67 9.99 2.51 10.28 2.36 10.57C2.2 10.86 2.06 11.15 1.92 11.44C1.78 11.74 1.64 12.04 1.52 12.34C1.39 12.64 1.27 12.95 1.16 13.26C1.05 13.57 0.95 13.88 0.86 14.19C0.76 14.5 0.67 14.82 0.59 15.14C0.51 15.45 0.44 15.77 0.38 16.09C0.32 16.41 0.26 16.74 0.21 17.06C0.16 17.38 0.12 17.71 0.09 18.03C0.06 18.36 0.04 18.69 0.02 19.01C0 19.34 0 19.67 0 20Z" fill="#FFD306" fill-opacity="1.000000" fill-rule="nonzero"/>
		<path d="M16.84 12.6L15.23 12.6C14.94 13.46 14.84 13.81 14.84 13.81L8.58 13.81C8.58 13.81 8.48 13.46 8.19 12.6L6.58 12.6L6.58 13.81L4.66 13.81L4.66 15.26L10.8 15.26L10.8 16.46L4.97 16.46L4.97 18.02L10.8 18.02L10.8 19.12L4.97 19.12L4.97 20.69L10.8 20.69L10.8 21.81L4.66 21.81L4.66 23.35L10.22 23.35C10.22 23.35 8.66 25.36 4.6 25.54L4.6 27.18C4.6 27.18 9.01 27.61 11.71 24.08C11.71 24.08 13.56 27.12 18.76 27.18L18.76 25.48C18.76 25.48 15.26 25.59 13.24 23.35L18.76 23.35L18.76 21.81L12.67 21.81L12.67 20.69L18.46 20.69L18.46 19.12L12.67 19.12L12.67 18.02L18.46 18.02L18.46 16.46L12.67 16.46L12.67 15.26L18.76 15.26L18.76 13.81L16.84 13.81L16.84 12.6ZM21.2 27.4L21.2 13L35.4 13L35.4 25.33C35.4 25.47 35.38 25.6 35.36 25.73C35.33 25.87 35.29 26 35.24 26.12C35.19 26.25 35.12 26.36 35.05 26.48C34.97 26.59 34.89 26.69 34.79 26.79C34.7 26.89 34.59 26.97 34.48 27.05C34.37 27.12 34.25 27.19 34.13 27.24C34 27.29 33.87 27.33 33.74 27.35C33.61 27.38 33.47 27.39 33.34 27.4L21.2 27.4ZM33.78 25.52C33.8 25.46 33.81 25.4 33.81 25.33L33.81 14.54L22.76 14.54L22.76 25.84L33.32 25.84C33.38 25.83 33.45 25.82 33.51 25.8C33.57 25.77 33.62 25.73 33.67 25.69C33.71 25.64 33.75 25.59 33.78 25.52ZM24.32 24.43L26.19 24.43C27.2 22.47 27.88 20.35 28.18 18.16L29.81 18.16L29.81 22.1C29.78 22.89 29.69 23.67 29.55 24.44L31.27 24.44C31.4 23.67 31.47 22.89 31.47 22.1L31.47 18.16L32.59 18.16L32.59 16.63L31.48 16.63L31.48 15.37L29.81 15.37L29.81 16.64L23.8 16.64L23.8 18.16L26.42 18.16C26.29 19.26 26.04 20.34 25.69 21.4C25.51 21.93 25.31 22.44 25.08 22.95C24.85 23.45 24.6 23.95 24.32 24.43Z" fill="#2C2C2C" fill-opacity="1.000000" fill-rule="evenodd"/>
	</g>
</svg>
