<svg width="40.000000" height="40.000000" viewBox="0 0 40 40" fill="none" xmlns="http://www.w3.org/2000/svg" xmlns:xlink="http://www.w3.org/1999/xlink">
	<desc>
			Created with Pixso.
	</desc>
	<defs>
		<clipPath id="clip70_4388">
			<rect width="40.000000" height="40.000000" fill="white" fill-opacity="0"/>
		</clipPath>
	</defs>
	<g clip-path="url(#clip70_4388)">
		<path d="M20 0C8.97 0 0 8.97 0 20C0 31.02 8.97 40 20 40C31.02 40 40 31.02 40 20C40 8.97 31.02 0 20 0Z" fill="#F2992C" fill-opacity="1.000000" fill-rule="nonzero"/>
		<path d="M30.66 18.42L30.66 27.76C30.66 28.56 30.02 29.2 29.23 29.2L10.61 29.2C9.82 29.2 9.17 28.56 9.17 27.76L9.17 18.42L30.66 18.42ZM17.67 23.69L13.57 23.69C13.04 23.69 12.61 24.12 12.61 24.64C12.61 25.17 13.04 25.6 13.57 25.6L17.67 25.6C18.2 25.6 18.63 25.17 18.63 24.64C18.63 24.12 18.2 23.69 17.67 23.69ZM29.23 12.37C30.02 12.37 30.66 13.02 30.66 13.81L30.66 16.5L9.17 16.5L9.17 13.81C9.17 13.02 9.82 12.37 10.61 12.37L29.23 12.37ZM27.2 8.14L28.52 11.77L13.05 11.77L25.36 7.29C26.11 7.01 26.93 7.4 27.2 8.14Z" fill="#FFFFFF" fill-opacity="1.000000" fill-rule="nonzero"/>
	</g>
</svg>
