<svg width="40.000000" height="40.000000" viewBox="0 0 40 40" fill="none" xmlns="http://www.w3.org/2000/svg" xmlns:xlink="http://www.w3.org/1999/xlink">
	<desc>
			Created with Pixso.
	</desc>
	<defs>
		<clipPath id="clip70_4394">
			<rect width="40.000000" height="40.000000" fill="white" fill-opacity="0"/>
		</clipPath>
	</defs>
	<g clip-path="url(#clip70_4394)">
		<path d="M20 0C8.97 0 0 8.97 0 20C0 31.02 8.97 40 20 40C31.02 40 40 31.02 40 20C40 8.97 31.02 0 20 0Z" fill="#FFFFFF" fill-opacity="1.000000" fill-rule="nonzero"/>
		<path d="M20 40C8.95 40 0 31.04 0 20C0 8.95 8.95 0 20 0C31.04 0 40 8.95 40 20C40 31.04 31.04 40 20 40ZM20.84 13.24C22.29 13.56 23.68 12.97 23.95 11.91C24.22 10.86 23.26 9.74 21.81 9.42C20.36 9.09 18.97 9.69 18.71 10.74C18.44 11.8 19.4 12.92 20.84 13.24ZM27.18 6.63C23.85 4.64 22.03 5.19 22.05 6.57C22.08 7.61 23.02 7.86 23.86 8.26C26.71 9.63 28.25 11.73 27.47 13.43C26.75 14.99 24.08 15.54 21.32 14.55C18.49 13.53 14.78 11.1 14.28 13.84C13.86 16.15 17.37 16.26 21.1 20.02C22.91 21.84 23.32 25.62 21.37 27.69C19.31 29.88 14.24 29.22 11.88 26.56C7.24 21.32 10.31 16.52 10.97 15.34C11.48 14.44 11.75 13.84 11.74 13.12C11.72 11.94 10.9 11.17 9.77 11.11C8.41 11.03 7.39 11.87 6.82 13.14C0.92 26.37 13.65 38.08 25.01 33.74C36.37 29.41 38.47 13.36 27.18 6.63Z" fill="#198CFF" fill-opacity="1.000000" fill-rule="nonzero"/>
	</g>
</svg>
