<svg width="40.000000" height="40.000000" viewBox="0 0 40 40" fill="none" xmlns="http://www.w3.org/2000/svg" xmlns:xlink="http://www.w3.org/1999/xlink">
	<desc>
			Created with Pixso.
	</desc>
	<defs>
		<clipPath id="clip70_4430">
			<rect width="40.000000" height="40.000000" fill="white" fill-opacity="0"/>
		</clipPath>
	</defs>
	<g clip-path="url(#clip70_4430)">
		<path d="M0 20C0 20.32 0 20.65 0.02 20.98C0.04 21.3 0.06 21.63 0.09 21.96C0.12 22.28 0.16 22.61 0.21 22.93C0.26 23.25 0.32 23.58 0.38 23.9C0.44 24.22 0.51 24.54 0.59 24.85C0.67 25.17 0.76 25.49 0.86 25.8C0.95 26.11 1.05 26.42 1.16 26.73C1.27 27.04 1.39 27.35 1.52 27.65C1.64 27.95 1.78 28.25 1.92 28.55C2.06 28.84 2.2 29.13 2.36 29.42C2.51 29.71 2.67 30 2.84 30.28C3.01 30.56 3.18 30.83 3.37 31.11C3.55 31.38 3.74 31.65 3.93 31.91C4.13 32.17 4.33 32.43 4.53 32.68C4.74 32.94 4.96 33.18 5.18 33.43C5.4 33.67 5.62 33.91 5.85 34.14C6.08 34.37 6.32 34.59 6.56 34.81C6.81 35.03 7.05 35.25 7.31 35.46C7.56 35.66 7.82 35.86 8.08 36.06C8.34 36.25 8.61 36.44 8.88 36.62C9.16 36.81 9.43 36.98 9.71 37.15C9.99 37.32 10.28 37.48 10.57 37.63C10.86 37.79 11.15 37.93 11.44 38.07C11.74 38.21 12.04 38.35 12.34 38.47C12.64 38.6 12.95 38.72 13.26 38.83C13.57 38.94 13.88 39.04 14.19 39.13C14.5 39.23 14.82 39.32 15.14 39.4C15.45 39.48 15.77 39.55 16.09 39.61C16.41 39.67 16.74 39.73 17.06 39.78C17.38 39.83 17.71 39.87 18.03 39.9C18.36 39.93 18.69 39.96 19.01 39.97C19.34 39.99 19.67 40 20 40C20.32 40 20.65 39.99 20.98 39.97C21.3 39.96 21.63 39.93 21.96 39.9C22.28 39.87 22.61 39.83 22.93 39.78C23.25 39.73 23.58 39.67 23.9 39.61C24.22 39.55 24.54 39.48 24.85 39.4C25.17 39.32 25.49 39.23 25.8 39.13C26.11 39.04 26.42 38.94 26.73 38.83C27.04 38.72 27.35 38.6 27.65 38.47C27.95 38.35 28.25 38.21 28.55 38.07C28.84 37.93 29.13 37.79 29.42 37.63C29.71 37.48 30 37.32 30.28 37.15C30.56 36.98 30.83 36.81 31.11 36.62C31.38 36.44 31.65 36.25 31.91 36.06C32.17 35.86 32.43 35.66 32.68 35.46C32.94 35.25 33.18 35.03 33.43 34.81C33.67 34.59 33.91 34.37 34.14 34.14C34.37 33.91 34.59 33.67 34.81 33.43C35.03 33.18 35.25 32.94 35.46 32.68C35.66 32.43 35.86 32.17 36.06 31.91C36.25 31.65 36.44 31.38 36.62 31.11C36.81 30.83 36.98 30.56 37.15 30.28C37.32 30 37.48 29.71 37.63 29.42C37.79 29.13 37.93 28.84 38.07 28.55C38.21 28.25 38.35 27.95 38.47 27.65C38.6 27.35 38.72 27.04 38.83 26.73C38.94 26.42 39.04 26.11 39.13 25.8C39.23 25.49 39.32 25.17 39.4 24.85C39.48 24.54 39.55 24.22 39.61 23.9C39.67 23.58 39.73 23.25 39.78 22.93C39.83 22.61 39.87 22.28 39.9 21.96C39.93 21.63 39.95 21.3 39.97 20.98C39.99 20.65 40 20.32 40 20C40 19.67 39.99 19.34 39.97 19.01C39.95 18.69 39.93 18.36 39.9 18.03C39.87 17.71 39.83 17.38 39.78 17.06C39.73 16.74 39.67 16.41 39.61 16.09C39.55 15.77 39.48 15.45 39.4 15.14C39.32 14.82 39.23 14.5 39.13 14.19C39.04 13.88 38.94 13.57 38.83 13.26C38.72 12.95 38.6 12.64 38.47 12.34C38.35 12.04 38.21 11.74 38.07 11.44C37.93 11.15 37.79 10.86 37.63 10.57C37.48 10.28 37.32 9.99 37.15 9.71C36.98 9.43 36.81 9.16 36.62 8.88C36.44 8.61 36.25 8.34 36.06 8.08C35.86 7.82 35.66 7.56 35.46 7.31C35.25 7.05 35.03 6.81 34.81 6.56C34.59 6.32 34.37 6.08 34.14 5.85C33.91 5.62 33.67 5.4 33.43 5.18C33.18 4.96 32.94 4.74 32.68 4.53C32.43 4.33 32.17 4.13 31.91 3.93C31.65 3.74 31.38 3.55 31.11 3.37C30.83 3.18 30.56 3.01 30.28 2.84C30 2.67 29.71 2.51 29.42 2.36C29.13 2.2 28.84 2.06 28.55 1.92C28.25 1.78 27.95 1.64 27.65 1.52C27.35 1.39 27.04 1.27 26.73 1.16C26.42 1.05 26.11 0.95 25.8 0.86C25.49 0.76 25.17 0.67 24.85 0.59C24.54 0.51 24.22 0.44 23.9 0.38C23.58 0.32 23.25 0.26 22.93 0.21C22.61 0.16 22.28 0.12 21.96 0.09C21.63 0.06 21.3 0.04 20.98 0.02C20.65 0 20.32 0 20 0C19.67 0 19.34 0 19.01 0.02C18.69 0.04 18.36 0.06 18.03 0.09C17.71 0.12 17.38 0.16 17.06 0.21C16.74 0.26 16.41 0.32 16.09 0.38C15.77 0.44 15.45 0.51 15.14 0.59C14.82 0.67 14.5 0.76 14.19 0.86C13.88 0.95 13.57 1.05 13.26 1.16C12.95 1.27 12.64 1.39 12.34 1.52C12.04 1.64 11.74 1.78 11.44 1.92C11.15 2.06 10.86 2.2 10.57 2.36C10.28 2.51 9.99 2.67 9.71 2.84C9.43 3.01 9.16 3.18 8.88 3.37C8.61 3.55 8.34 3.74 8.08 3.93C7.82 4.13 7.56 4.33 7.31 4.53C7.05 4.74 6.81 4.96 6.56 5.18C6.32 5.4 6.08 5.62 5.85 5.85C5.62 6.08 5.4 6.32 5.18 6.56C4.96 6.81 4.74 7.05 4.53 7.31C4.33 7.56 4.13 7.82 3.93 8.08C3.74 8.34 3.55 8.61 3.37 8.88C3.18 9.16 3.01 9.43 2.84 9.71C2.67 9.99 2.51 10.28 2.36 10.57C2.2 10.86 2.06 11.15 1.92 11.44C1.78 11.74 1.64 12.04 1.52 12.34C1.39 12.64 1.27 12.95 1.16 13.26C1.05 13.57 0.95 13.88 0.86 14.19C0.76 14.5 0.67 14.82 0.59 15.14C0.51 15.45 0.44 15.77 0.38 16.09C0.32 16.41 0.26 16.74 0.21 17.06C0.16 17.38 0.12 17.71 0.09 18.03C0.06 18.36 0.04 18.69 0.02 19.01C0 19.34 0 19.67 0 20Z" fill="#333333" fill-opacity="1.000000" fill-rule="nonzero"/>
		<path d="M29.66 17.52C27.75 17.52 25.9 16.89 24.37 15.76L24.37 23.76C24.37 27.83 21.22 31.14 17.34 31.14C13.46 31.14 10.31 27.83 10.31 23.76C10.31 19.67 13.46 16.36 17.34 16.36C17.73 16.36 18.11 16.39 18.46 16.46L18.46 20.7C18.12 20.55 17.74 20.49 17.37 20.49C15.64 20.49 14.23 21.96 14.23 23.78C14.23 25.61 15.64 27.08 17.37 27.08C19.1 27.08 20.5 25.61 20.5 23.78L20.5 7.89L24.42 7.89C24.42 10.96 26.78 13.42 29.68 13.42L29.68 17.52L29.66 17.52Z" fill="#FFFFFF" fill-opacity="1.000000" fill-rule="nonzero"/>
	</g>
</svg>
