<svg width="40.000000" height="40.000000" viewBox="0 0 40 40" fill="none" xmlns="http://www.w3.org/2000/svg" xmlns:xlink="http://www.w3.org/1999/xlink">
	<desc>
			Created with Pixso.
	</desc>
	<defs>
		<clipPath id="clip70_4409">
			<rect width="40.000000" height="40.000000" fill="white" fill-opacity="0"/>
		</clipPath>
	</defs>
	<g clip-path="url(#clip70_4409)">
		<path d="M20 0C8.97 0 0 8.97 0 20C0 31.02 8.97 40 20 40C31.02 40 40 31.02 40 20C40 8.97 31.02 0 20 0Z" fill="#FFFFFF" fill-opacity="1.000000" fill-rule="nonzero"/>
		<path d="M20 40C8.95 40 0 31.04 0 20C0 8.95 8.95 0 20 0C31.04 0 40 8.95 40 20C40 31.04 31.04 40 20 40ZM7.87 29.33C11.88 29.33 15.14 26.17 15.14 22.28L15.14 9.36L12.72 9.36L12.72 22.28C12.72 24.87 10.55 26.98 7.87 26.98L6.66 26.98L6.66 29.33L7.87 29.33ZM24.22 29.33C29.24 29.33 33.3 24.86 33.3 19.34C33.3 13.83 29.24 9.36 24.22 9.36L18.17 9.36L18.17 29.33L24.22 29.33ZM20.59 11.71L24.22 11.71C27.9 11.71 30.88 15.13 30.88 19.34C30.88 23.56 27.9 26.98 24.22 26.98L20.59 26.98L20.59 11.71Z" fill="#D81E06" fill-opacity="1.000000" fill-rule="evenodd"/>
	</g>
</svg>
