<svg width="24.000000" height="24.000000" viewBox="0 0 24 24" fill="none" xmlns="http://www.w3.org/2000/svg" xmlns:xlink="http://www.w3.org/1999/xlink">
	<desc>
			Created with Pixso.
	</desc>
	<defs>
		<clipPath id="clip61_3671">
			<rect width="24.000000" height="24.000000" fill="white" fill-opacity="0"/>
		</clipPath>
	</defs>
	<g clip-path="url(#clip61_3671)">
		<g opacity="0.000000">
			<rect width="24.000000" height="24.000000" fill="#000000" fill-opacity="1.000000"/>
		</g>
		<path d="M22.01 13.33C21.81 10.04 20.29 7.56 17.45 5.89L18.45 3.9C18.56 3.68 18.61 3.42 18.61 3.11C18.61 2.76 18.53 2.46 18.35 2.2C18.2 1.93 17.98 1.72 17.71 1.57C17.45 1.43 17.17 1.36 16.86 1.36L7.09 1.36C6.8 1.36 6.51 1.43 6.25 1.57C5.98 1.72 5.78 1.93 5.61 2.2C5.43 2.46 5.34 2.76 5.34 3.11C5.34 3.42 5.4 3.68 5.52 3.9L6.5 5.87C5.12 6.66 4.07 7.66 3.34 8.87C2.59 10.09 2.14 11.57 1.98 13.33C1.97 13.49 1.96 13.73 1.96 14.05C1.96 16.31 2.65 18.18 4.03 19.65C4.92 20.61 6.06 21.35 7.42 21.85C8.79 22.37 10.32 22.62 12 22.62C13.67 22.62 15.19 22.38 16.54 21.89C17.9 21.41 19.01 20.71 19.86 19.79C20.63 18.99 21.2 18.05 21.56 16.95C21.91 15.85 22.07 14.65 22.01 13.33ZM18.79 18.76C18.07 19.53 17.12 20.11 15.97 20.51C14.81 20.91 13.48 21.11 12 21.11C10.51 21.11 9.18 20.9 8.03 20.46C6.86 20.03 5.9 19.41 5.13 18.59C3.9 17.27 3.35 15.55 3.47 13.43C3.65 11.82 4.09 10.48 4.79 9.41C5.48 8.35 6.5 7.49 7.84 6.83L8.52 6.52L6.88 3.23C6.84 3.12 6.84 3.04 6.88 2.99C6.93 2.91 7 2.87 7.09 2.87L16.86 2.87C16.98 2.87 17.05 2.91 17.09 2.99C17.13 3.09 17.14 3.17 17.1 3.23L15.42 6.57L16.09 6.9C18.87 8.26 20.34 10.43 20.5 13.41C20.56 14.51 20.44 15.52 20.15 16.42C19.87 17.32 19.41 18.1 18.79 18.76ZM14.98 13.5C15.18 13.5 15.35 13.43 15.5 13.29C15.64 13.15 15.72 12.97 15.72 12.76C15.72 12.56 15.64 12.38 15.5 12.23C15.35 12.09 15.18 12.01 14.98 12.01L13.08 12.01L14.98 10.09C15.11 9.95 15.18 9.78 15.18 9.57C15.18 9.36 15.11 9.18 14.98 9.04C14.83 8.9 14.65 8.82 14.45 8.82C14.24 8.82 14.06 8.9 13.91 9.04L11.95 11.01L10.03 9.09C9.88 8.95 9.71 8.87 9.5 8.87C9.29 8.87 9.11 8.95 8.97 9.09C8.83 9.23 8.76 9.41 8.76 9.61C8.76 9.83 8.83 10 8.97 10.14L10.84 12.01L9.02 12.01C8.81 12.01 8.63 12.09 8.5 12.23C8.35 12.38 8.28 12.56 8.28 12.76C8.28 12.97 8.35 13.15 8.5 13.3C8.63 13.46 8.81 13.53 9.02 13.53L11.23 13.53L11.23 14.8L9 14.8C8.79 14.8 8.61 14.87 8.46 15.01C8.33 15.16 8.26 15.34 8.26 15.54C8.26 15.75 8.33 15.93 8.46 16.07C8.61 16.22 8.79 16.29 9 16.29L11.23 16.29L11.23 18.52C11.23 18.73 11.3 18.91 11.46 19.05C11.61 19.19 11.79 19.26 12 19.26C12.2 19.26 12.38 19.19 12.53 19.05C12.66 18.91 12.74 18.73 12.74 18.52L12.74 16.29L14.98 16.29C15.18 16.29 15.35 16.22 15.5 16.07C15.64 15.93 15.72 15.75 15.72 15.54C15.72 15.34 15.64 15.16 15.5 15.01C15.35 14.87 15.18 14.8 14.98 14.8L12.74 14.8L12.74 13.53L14.98 13.5Z" fill="#000000" fill-opacity="0.600000" fill-rule="nonzero"/>
	</g>
</svg>
