<svg width="24.000000" height="24.000000" viewBox="0 0 24 24" fill="none" xmlns="http://www.w3.org/2000/svg" xmlns:xlink="http://www.w3.org/1999/xlink">
	<desc>
			Created with Pixso.
	</desc>
	<defs>
		<clipPath id="clip185_9895">
			<rect id="svg" width="24.000000" height="24.000000" fill="white" fill-opacity="0"/>
		</clipPath>
	</defs>
	<g clip-path="url(#clip185_9895)">
		<g opacity="0.000000">
			<rect id="rect" width="24.000000" height="24.000000" fill="#000000" fill-opacity="1.000000"/>
		</g>
		<path id="path" d="M19.01 22.01C19.53 22.01 20.03 21.87 20.5 21.6C20.96 21.32 21.32 20.96 21.6 20.5C21.87 20.03 22.01 19.53 22.01 19.01L22.01 4.98C22.01 4.46 21.87 3.96 21.6 3.5C21.32 3.04 20.96 2.67 20.5 2.4C20.03 2.12 19.53 1.98 19.01 1.98L4.98 1.98C4.46 1.98 3.96 2.12 3.5 2.4C3.04 2.67 2.67 3.04 2.39 3.5C2.12 3.96 1.98 4.46 1.98 4.98L1.98 19.01C1.98 19.53 2.12 20.03 2.39 20.5C2.67 20.96 3.04 21.32 3.5 21.6C3.96 21.87 4.46 22.01 4.98 22.01L19.01 22.01ZM19.01 3.5C19.42 3.5 19.77 3.64 20.06 3.93C20.35 4.22 20.5 4.57 20.5 4.98L20.5 19.01C20.5 19.41 20.35 19.75 20.06 20.04C19.77 20.35 19.42 20.5 19.01 20.5L4.98 20.5C4.59 20.5 4.24 20.35 3.94 20.04C3.64 19.75 3.5 19.41 3.5 19.01L3.5 4.98C3.5 4.57 3.64 4.22 3.94 3.93C4.24 3.64 4.59 3.5 4.98 3.5L19.01 3.5ZM7.1 6.85C6.87 6.85 6.68 6.93 6.52 7.09C6.34 7.26 6.26 7.45 6.26 7.67C6.26 7.92 6.34 8.12 6.52 8.28C6.68 8.43 6.87 8.52 7.1 8.52C7.32 8.52 7.52 8.43 7.67 8.28C7.84 8.12 7.91 7.92 7.91 7.67C7.91 7.45 7.84 7.26 7.67 7.09C7.52 6.93 7.32 6.85 7.1 6.85ZM7.1 11.16C6.87 11.16 6.68 11.24 6.52 11.41C6.34 11.57 6.26 11.77 6.26 12C6.26 12.22 6.34 12.42 6.52 12.59C6.68 12.75 6.87 12.84 7.1 12.84C7.32 12.84 7.52 12.75 7.67 12.59C7.84 12.42 7.91 12.22 7.91 12C7.91 11.77 7.84 11.57 7.67 11.41C7.52 11.24 7.32 11.16 7.1 11.16ZM7.1 15.48C6.87 15.48 6.68 15.55 6.52 15.72C6.34 15.88 6.26 16.08 6.26 16.31C6.26 16.54 6.34 16.74 6.52 16.9C6.68 17.05 6.87 17.14 7.1 17.14C7.32 17.14 7.52 17.05 7.67 16.9C7.84 16.74 7.91 16.54 7.91 16.31C7.91 16.08 7.84 15.88 7.67 15.72C7.52 15.55 7.32 15.48 7.1 15.48ZM16.96 8.42C17.18 8.42 17.37 8.34 17.52 8.2C17.66 8.06 17.74 7.88 17.74 7.67C17.74 7.47 17.66 7.29 17.52 7.15C17.37 7.01 17.19 6.93 16.99 6.93L9.47 6.93C9.27 6.93 9.09 7.01 8.93 7.15C8.78 7.29 8.7 7.47 8.7 7.67C8.7 7.88 8.78 8.06 8.93 8.2C9.09 8.34 9.27 8.42 9.47 8.42L16.96 8.42ZM16.96 12.74C17.17 12.74 17.35 12.67 17.51 12.53C17.66 12.38 17.74 12.2 17.74 12C17.74 11.79 17.66 11.61 17.52 11.47C17.37 11.33 17.19 11.26 16.99 11.26L9.47 11.26C9.27 11.26 9.09 11.33 8.93 11.47C8.78 11.61 8.7 11.79 8.7 12C8.7 12.2 8.78 12.38 8.93 12.53C9.09 12.67 9.27 12.74 9.47 12.74L16.96 12.74ZM16.96 17.05C17.17 17.05 17.35 16.98 17.51 16.84C17.66 16.68 17.74 16.51 17.74 16.31C17.74 16.11 17.66 15.93 17.52 15.78C17.37 15.62 17.19 15.55 16.99 15.55L9.47 15.55C9.27 15.55 9.09 15.62 8.93 15.78C8.78 15.93 8.7 16.11 8.7 16.31C8.7 16.51 8.78 16.68 8.93 16.84C9.09 16.98 9.27 17.05 9.47 17.05L16.96 17.05Z" fill="#000000" fill-opacity="0.600000" fill-rule="nonzero"/>
	</g>
</svg>
