<svg width="24.000000" height="24.000000" viewBox="0 0 24 24" fill="none" xmlns="http://www.w3.org/2000/svg" xmlns:xlink="http://www.w3.org/1999/xlink">
	<desc>
			Created with Pixso.
	</desc>
	<defs>
		<clipPath id="clip185_9865">
			<rect id="svg" width="24.000000" height="24.000000" fill="white" fill-opacity="0"/>
		</clipPath>
	</defs>
	<g clip-path="url(#clip185_9865)">
		<g opacity="0.000000">
			<rect id="rect" width="24.000000" height="24.000000" fill="#000000" fill-opacity="1.000000"/>
		</g>
		<path id="path" d="M7.1 6.85C7.32 6.85 7.52 6.93 7.67 7.09C7.84 7.25 7.91 7.45 7.91 7.67C7.91 7.91 7.84 8.11 7.67 8.27C7.52 8.43 7.32 8.51 7.1 8.51C6.87 8.51 6.68 8.43 6.52 8.27C6.34 8.11 6.26 7.91 6.26 7.67C6.26 7.45 6.34 7.25 6.52 7.09C6.68 6.93 6.87 6.85 7.1 6.85ZM7.1 11.16C7.32 11.16 7.52 11.24 7.67 11.41C7.84 11.57 7.91 11.77 7.91 12C7.91 12.22 7.84 12.42 7.67 12.59C7.52 12.75 7.32 12.84 7.1 12.84C6.87 12.84 6.68 12.75 6.52 12.59C6.34 12.42 6.26 12.22 6.26 12C6.26 11.77 6.34 11.57 6.52 11.41C6.68 11.24 6.87 11.16 7.1 11.16ZM7.1 15.48C7.32 15.48 7.52 15.56 7.67 15.72C7.84 15.88 7.91 16.08 7.91 16.32C7.91 16.54 7.84 16.74 7.67 16.9C7.52 17.06 7.32 17.14 7.1 17.14C6.87 17.14 6.68 17.06 6.52 16.9C6.34 16.74 6.26 16.54 6.26 16.32C6.26 16.08 6.34 15.88 6.52 15.72C6.68 15.56 6.87 15.48 7.1 15.48ZM9.47 8.41C9.27 8.41 9.09 8.34 8.93 8.2C8.78 8.06 8.7 7.88 8.7 7.67C8.7 7.47 8.78 7.29 8.93 7.14C9.09 7 9.27 6.93 9.47 6.93L16.99 6.93C17.19 6.93 17.37 7 17.52 7.14C17.66 7.29 17.74 7.47 17.74 7.67C17.74 7.88 17.66 8.06 17.52 8.2C17.37 8.34 17.18 8.41 16.96 8.41L9.47 8.41ZM9.47 12.74C9.27 12.74 9.09 12.67 8.93 12.53C8.78 12.38 8.7 12.2 8.7 12C8.7 11.79 8.78 11.61 8.93 11.47C9.09 11.33 9.27 11.26 9.47 11.26L16.99 11.26C17.19 11.26 17.37 11.33 17.52 11.47C17.66 11.61 17.74 11.79 17.74 12C17.74 12.2 17.66 12.38 17.51 12.53C17.35 12.67 17.17 12.74 16.96 12.74L9.47 12.74ZM9.47 17.06C9.27 17.06 9.09 16.98 8.93 16.84C8.78 16.68 8.7 16.51 8.7 16.32C8.7 16.11 8.78 15.93 8.93 15.78C9.09 15.62 9.27 15.55 9.47 15.55L16.99 15.55C17.19 15.55 17.37 15.62 17.52 15.78C17.66 15.93 17.74 16.11 17.74 16.32C17.74 16.51 17.66 16.68 17.51 16.84C17.35 16.98 17.17 17.06 16.96 17.06L9.47 17.06ZM19.01 22.01C19.53 22.01 20.03 21.87 20.5 21.6C20.96 21.32 21.32 20.96 21.6 20.5C21.87 20.03 22.01 19.53 22.01 19.01L22.01 4.98C22.01 4.46 21.87 3.96 21.6 3.49C21.32 3.03 20.96 2.67 20.5 2.39C20.03 2.12 19.53 1.98 19.01 1.98L4.98 1.98C4.46 1.98 3.96 2.12 3.5 2.39C3.04 2.67 2.67 3.03 2.39 3.49C2.12 3.96 1.98 4.46 1.98 4.98L1.98 19.01C1.98 19.53 2.12 20.03 2.39 20.5C2.67 20.96 3.04 21.32 3.5 21.6C3.96 21.87 4.46 22.01 4.98 22.01L19.01 22.01Z" fill="#94B982" fill-opacity="1.000000" fill-rule="nonzero"/>
	</g>
</svg>
