<svg width="24.000000" height="24.000000" viewBox="0 0 24 24" fill="none" xmlns="http://www.w3.org/2000/svg" xmlns:xlink="http://www.w3.org/1999/xlink">
	<desc>
			Created with Pixso.
	</desc>
	<defs>
		<clipPath id="clip61_3699">
			<rect width="24.000000" height="24.000000" fill="white" fill-opacity="0"/>
		</clipPath>
	</defs>
	<g clip-path="url(#clip61_3699)">
		<g opacity="0.000000">
			<rect width="24.000000" height="24.000000" fill="#000000" fill-opacity="1.000000"/>
		</g>
		<path d="M22.0098 13.3402Q21.8647 10.8697 20.7241 9.0094Q19.5842 7.14996 17.4497 5.90027L18.4597 3.91022Q18.6196 3.58026 18.6196 3.12024Q18.6196 2.65259 18.4172 2.3017Q18.3904 2.25494 18.3596 2.21027C18.1997 1.93689 17.9863 1.72693 17.7197 1.58026C17.4597 1.44025 17.1765 1.37024 16.8696 1.37024L7.09961 1.37024C6.7998 1.37024 6.51636 1.44025 6.24976 1.58026Q6.13867 1.64294 6.03955 1.72107Q5.79126 1.91705 5.61963 2.21027Q5.57471 2.27356 5.53711 2.34106Q5.34961 2.67859 5.34961 3.12024Q5.34961 3.58026 5.51978 3.91022L6.49976 5.88025Q4.60815 6.96381 3.52588 8.58704Q3.42969 8.73151 3.33984 8.88025Q2.22974 10.7003 1.98975 13.3402C1.97632 13.5002 1.96973 13.7402 1.96973 14.0602Q1.96973 16.4663 3.00757 18.278Q3.43188 19.0188 4.02979 19.6602Q4.07812 19.712 4.12769 19.7628Q5.45337 21.1275 7.42969 21.8602Q9.47974 22.6302 11.9998 22.6302Q14.5198 22.6302 16.5498 21.9003Q18.5798 21.1702 19.8696 19.8002Q20.2224 19.4322 20.5178 19.0228Q21.1853 18.0972 21.5598 16.9603C21.9197 15.8602 22.0698 14.6536 22.0098 13.3402ZM15.4998 13.3002C15.3599 13.4402 15.1865 13.5102 14.9797 13.5102L12.7397 13.5402L12.7397 14.8102L14.9797 14.8102C15.1865 14.8102 15.3599 14.8802 15.4998 15.0202C15.6465 15.1669 15.7197 15.3435 15.7197 15.5502C15.7197 15.7568 15.6465 15.9335 15.4998 16.0802C15.3599 16.2269 15.1865 16.3002 14.9797 16.3002L12.7397 16.3002L12.7397 18.5302Q12.7397 18.6959 12.6797 18.8359Q12.6274 18.9578 12.5298 19.0602C12.3831 19.2002 12.2065 19.2702 11.9998 19.2702C11.7932 19.2702 11.613 19.2002 11.4597 19.0602Q11.335 18.9408 11.2778 18.7949Q11.2297 18.672 11.2297 18.5302L11.2297 16.3002L8.99976 16.3002C8.79321 16.3002 8.61646 16.2269 8.46973 16.0802C8.32983 15.9335 8.25977 15.7568 8.25977 15.5502C8.25977 15.3435 8.32983 15.1669 8.46973 15.0202C8.61646 14.8802 8.79321 14.8102 8.99976 14.8102L11.2297 14.8102L11.2297 13.5402L9.01978 13.5402C8.81299 13.5402 8.63965 13.4636 8.49976 13.3102C8.35303 13.1569 8.27979 12.9769 8.27979 12.7702Q8.27979 12.6171 8.3335 12.486Q8.38843 12.3516 8.49976 12.2402C8.63965 12.0935 8.81299 12.0202 9.01978 12.0202L10.8499 12.0202L8.97974 10.1502C8.83301 10.0102 8.75977 9.83356 8.75977 9.62018C8.75977 9.41351 8.83301 9.24017 8.97974 9.10022C9.11987 8.95355 9.29321 8.88019 9.49976 8.88019C9.71313 8.88019 9.88965 8.95355 10.0298 9.10022L11.9497 11.0202L13.9197 9.05017C14.0664 8.9035 14.2432 8.8302 14.4497 8.8302C14.6565 8.8302 14.833 8.9035 14.9797 9.05017C15.1199 9.19019 15.1897 9.36688 15.1897 9.5802C15.1897 9.78687 15.1199 9.96021 14.9797 10.1002L13.0798 12.0202L14.9797 12.0202C15.1865 12.0202 15.3599 12.0935 15.4998 12.2402C15.6465 12.3868 15.7197 12.5635 15.7197 12.7702C15.7197 12.9769 15.6465 13.1536 15.4998 13.3002Z" clip-rule="evenodd" fill="#94B982" fill-opacity="1.000000" fill-rule="evenodd"/>
	</g>
</svg>
